# xmcd
#
# Track frame offsets: 
#        150
#        26216
#        55086
#        89790
#        115123
#        135498
#        168870
#        198870
#        226679
#        257907
#
# Disc length: 4006 seconds
#
# Revision: 1
# Processed by: cddbd v1.5.2PL0 Copyright (c) Steve Scherf et al.
# Submitted via: ExactAudioCopy v0.99pb5
#
DISCID=7f0fa40a
DTITLE=SWR Big Band - Die Besten aus Südwessten
DYEAR=2012
DGENRE=Jazz
TTITLE0=Dance of Joy (Ralf Hesse)
TTITLE1=Der geografische Mittelpunkt (Rainer Tempel)
TTITLE2=Ellegua's Mind (Gregor Hübner)
TTITLE3=Serpent (Ralf Schmid)
TTITLE4=Clearwater Mountain (Klaus Wagenleiter)
TTITLE5=Rhapsody (Thorsten Wollmann)
TTITLE6=Distance (Steffen Schorn)
TTITLE7=Frela (Martin Schrack)
TTITLE8=Be the Ride (Alexander Bühl)
TTITLE9=Pernambuco (Steffen Schorn)
EXTD=YEAR: 2012
EXTT0=
EXTT1=
EXTT2=
EXTT3=
EXTT4=
EXTT5=
EXTT6=
EXTT7=
EXTT8=
EXTT9=
PLAYORDER=
